<svg width="32" height="32" viewBox="0 0 32 32" fill="none" xmlns="http://www.w3.org/2000/svg">
<g clip-path="url(#clip0_1619_204)">
<path d="M12.8 0C12.095 0 11.52 0.777027 11.52 1.72973H4.275C1.915 1.72973 0 4.31757 0 7.50676V11.2432C0 12.1959 0.575 12.973 1.28 12.973H1.335L1.815 27.1757C1.905 29.8716 3.55 32 5.55 32H26.45C28.45 32 29.99 29.8986 30.08 27.1959L30.66 12.973H30.72C31.425 12.973 32 12.1959 32 11.2432V7.50676C32 4.31757 30.085 1.72973 27.725 1.72973H20.48C20.48 0.777027 19.905 0 19.2 0H12.8ZM4.275 5.18919H27.725C28.67 5.18919 29.44 6.22973 29.44 7.50676V9.51351H23.68V8.64865C23.68 7.69595 23.105 6.91892 22.4 6.91892C21.695 6.91892 21.12 7.69595 21.12 8.64865V9.51351H10.88V8.64865C10.88 7.69595 10.305 6.91892 9.6 6.91892C8.895 6.91892 8.32 7.69595 8.32 8.64865V9.51351H2.56V7.50676C2.56 6.22973 3.33 5.18919 4.275 5.18919ZM3.9 12.973H8.32V13.8378C8.32 14.7905 8.895 15.5676 9.6 15.5676C10.305 15.5676 10.88 14.7905 10.88 13.8378V12.973H21.12V13.8378C21.12 14.7905 21.695 15.5676 22.4 15.5676C23.105 15.5676 23.68 14.7905 23.68 13.8378V12.973H28.1L27.63 27.0135C27.6 27.8716 27.08 28.5405 26.45 28.5405H5.55C4.92 28.5405 4.4 27.8716 4.37 27.0135L3.9 12.973Z" fill="#E2E2E2"/>
</g>
<defs>
<clipPath id="clip0_1619_204">
<rect width="32" height="32" fill="white"/>
</clipPath>
</defs>
</svg>
