<svg width="32" height="32" viewBox="0 0 32 32" fill="none" xmlns="http://www.w3.org/2000/svg">
<g clip-path="url(#clip0_1619_198)">
<path d="M12.8 0C12.095 0 11.52 0.777027 11.52 1.72973H3.605C1.615 1.72973 0 3.91216 0 6.59459V7.78378C0 8.73649 0.575 9.51351 1.28 9.51351H8.32V8.64865C8.32 7.69595 8.895 6.91892 9.6 6.91892C10.305 6.91892 10.88 7.69595 10.88 8.64865V9.51351H21.12V8.64865C21.12 7.69595 21.695 6.91892 22.4 6.91892C23.105 6.91892 23.68 7.69595 23.68 8.64865V9.51351H30.72C31.425 9.51351 32 8.73649 32 7.78378V6.59459C32 3.91216 30.385 1.72973 28.395 1.72973H20.48C20.48 0.777027 19.905 0 19.2 0H12.8ZM1.335 12.973C1.335 12.973 1.695 23.6284 1.815 27.1757C1.905 29.8784 3.545 32 5.55 32H26.45C28.455 32 30.095 29.8784 30.185 27.1757C30.305 23.6216 30.66 12.973 30.66 12.973H23.68V13.8378C23.68 14.7905 23.105 15.5676 22.4 15.5676C21.695 15.5676 21.12 14.7905 21.12 13.8378V12.973H10.88V13.8378C10.88 14.7905 10.305 15.5676 9.6 15.5676C8.895 15.5676 8.32 14.7905 8.32 13.8378V12.973H1.335Z" fill="#FFC700"/>
</g>
<defs>
<clipPath id="clip0_1619_198">
<rect width="32" height="32" fill="white"/>
</clipPath>
</defs>
</svg>
